<mxfile host="app.diagrams.net" modified="2022-11-04T08:38:13.138Z" agent="5.0 (Windows NT 10.0; Win64; x64) AppleWebKit/537.36 (KHTML, like Gecko) Chrome/106.0.0.0 Safari/537.36" etag="Na2ucZ3V4INhiz3tGw5R" version="20.5.1" type="github">
  <diagram id="Bzc63cNb1Rltn89ZzBxf" name="第 1 页">
    <mxGraphModel dx="1173" dy="577" grid="1" gridSize="10" guides="1" tooltips="1" connect="1" arrows="1" fold="1" page="1" pageScale="1" pageWidth="827" pageHeight="1169" math="0" shadow="0">
      <root>
        <mxCell id="0" />
        <mxCell id="1" parent="0" />
        <mxCell id="TdL-UYesMyR83I8H5vmn-44" value="" style="verticalLabelPosition=top;verticalAlign=bottom;html=1;shape=mxgraph.infographic.cylinder;isoAngle=15;fillColor=#CCCCCC;strokeColor=none;fontStyle=1;fontColor=#23445D;fontSize=12;shadow=0;align=left;opacity=70;" vertex="1" parent="1">
          <mxGeometry x="484" y="230" width="100" height="50" as="geometry" />
        </mxCell>
        <mxCell id="TdL-UYesMyR83I8H5vmn-21" value="&lt;p class=&quot;MsoNormal&quot;&gt;&lt;span style=&quot;mso-spacerun:&#39;yes&#39;;font-family:仿宋;font-size:14.0000pt;&quot;&gt;运作层&lt;/span&gt;&lt;/p&gt;" style="verticalLabelPosition=middle;verticalAlign=middle;html=1;shape=mxgraph.infographic.cylinder;fillColor=#23445D;strokeColor=none;shadow=0;align=left;labelPosition=right;spacingLeft=10;fontStyle=1;fontColor=#23445D;" vertex="1" parent="1">
          <mxGeometry x="484" y="215" width="100" height="40" as="geometry" />
        </mxCell>
        <mxCell id="TdL-UYesMyR83I8H5vmn-20" value="&lt;p class=&quot;MsoNormal&quot;&gt;&lt;span style=&quot;mso-spacerun:&#39;yes&#39;;font-family:仿宋;font-size:14.0000pt;&quot;&gt;生产流程&lt;/span&gt;&lt;/p&gt;" style="verticalLabelPosition=middle;verticalAlign=middle;html=1;shape=mxgraph.infographic.cylinder;fillColor=#12AAB5;strokeColor=none;shadow=0;align=left;labelPosition=right;spacingLeft=10;fontStyle=1;fontColor=#12AAB5;" vertex="1" parent="1">
          <mxGeometry x="484" y="255" width="100" height="40" as="geometry" />
        </mxCell>
        <mxCell id="TdL-UYesMyR83I8H5vmn-43" value="" style="verticalLabelPosition=top;verticalAlign=bottom;html=1;shape=mxgraph.infographic.cylinder;isoAngle=15;fillColor=#CCCCCC;strokeColor=none;fontStyle=1;fontColor=#23445D;fontSize=12;shadow=0;align=left;opacity=70;" vertex="1" parent="1">
          <mxGeometry x="484" y="190" width="100" height="50" as="geometry" />
        </mxCell>
        <mxCell id="TdL-UYesMyR83I8H5vmn-23" value="&lt;p class=&quot;MsoNormal&quot;&gt;&lt;span style=&quot;mso-spacerun:&#39;yes&#39;;font-family:仿宋;font-size:14.0000pt;&quot;&gt;计划层&lt;/span&gt;&lt;/p&gt;" style="verticalLabelPosition=middle;verticalAlign=middle;html=1;shape=mxgraph.infographic.cylinder;fillColor=#F2931E;strokeColor=none;shadow=0;align=left;labelPosition=right;spacingLeft=10;fontStyle=1;fontColor=#F2931E;" vertex="1" parent="1">
          <mxGeometry x="484" y="180" width="100" height="35" as="geometry" />
        </mxCell>
        <mxCell id="TdL-UYesMyR83I8H5vmn-11" value="" style="verticalLabelPosition=top;verticalAlign=bottom;html=1;shape=mxgraph.infographic.cylinder;isoAngle=15;fillColor=#CCCCCC;strokeColor=none;fontStyle=1;fontColor=#23445D;fontSize=12;shadow=0;align=left;opacity=70;" vertex="1" parent="1">
          <mxGeometry x="484" y="150" width="100" height="50" as="geometry" />
        </mxCell>
        <mxCell id="TdL-UYesMyR83I8H5vmn-24" value="&lt;p class=&quot;MsoNormal&quot;&gt;&lt;span style=&quot;mso-spacerun:&#39;yes&#39;;font-family:仿宋;font-size:14.0000pt;&quot;&gt;战略层&lt;/span&gt;&lt;/p&gt;" style="verticalLabelPosition=middle;verticalAlign=middle;html=1;shape=mxgraph.infographic.cylinder;fillColor=#10739E;strokeColor=none;shadow=0;align=left;labelPosition=right;spacingLeft=10;fontStyle=1;fontColor=#10739E;" vertex="1" parent="1">
          <mxGeometry x="484" y="140" width="100" height="35" as="geometry" />
        </mxCell>
        <mxCell id="TdL-UYesMyR83I8H5vmn-70" value="" style="edgeStyle=orthogonalEdgeStyle;rounded=0;orthogonalLoop=1;jettySize=auto;html=1;" edge="1" parent="1" source="TdL-UYesMyR83I8H5vmn-49">
          <mxGeometry relative="1" as="geometry">
            <mxPoint x="178" y="310" as="targetPoint" />
            <Array as="points">
              <mxPoint x="178" y="320" />
              <mxPoint x="178" y="320" />
            </Array>
          </mxGeometry>
        </mxCell>
        <mxCell id="TdL-UYesMyR83I8H5vmn-49" value="" style="shape=cylinder3;whiteSpace=wrap;html=1;boundedLbl=1;backgroundOutline=1;size=15;" vertex="1" parent="1">
          <mxGeometry x="148" y="350" width="60" height="50" as="geometry" />
        </mxCell>
        <mxCell id="TdL-UYesMyR83I8H5vmn-50" value="" style="shape=curlyBracket;whiteSpace=wrap;html=1;rounded=1;flipH=1;" vertex="1" parent="1">
          <mxGeometry x="674" y="150" width="20" height="140" as="geometry" />
        </mxCell>
        <mxCell id="TdL-UYesMyR83I8H5vmn-51" value="" style="shape=curlyBracket;whiteSpace=wrap;html=1;rounded=1;" vertex="1" parent="1">
          <mxGeometry x="444" y="150" width="20" height="140" as="geometry" />
        </mxCell>
        <mxCell id="TdL-UYesMyR83I8H5vmn-58" value="" style="edgeStyle=orthogonalEdgeStyle;rounded=0;orthogonalLoop=1;jettySize=auto;html=1;fillColor=#dae8fc;strokeColor=#6c8ebf;" edge="1" parent="1" source="TdL-UYesMyR83I8H5vmn-52" target="TdL-UYesMyR83I8H5vmn-55">
          <mxGeometry relative="1" as="geometry">
            <Array as="points">
              <mxPoint x="230" y="150" />
              <mxPoint x="230" y="150" />
            </Array>
          </mxGeometry>
        </mxCell>
        <mxCell id="TdL-UYesMyR83I8H5vmn-52" value="" style="rounded=1;whiteSpace=wrap;html=1;fillColor=#dae8fc;strokeColor=#6c8ebf;" vertex="1" parent="1">
          <mxGeometry x="200" y="60" width="120" height="60" as="geometry" />
        </mxCell>
        <mxCell id="TdL-UYesMyR83I8H5vmn-53" value="管控系统" style="rounded=1;whiteSpace=wrap;html=1;fillColor=#d5e8d4;strokeColor=#82b366;" vertex="1" parent="1">
          <mxGeometry x="230" y="75" width="60" height="30" as="geometry" />
        </mxCell>
        <mxCell id="TdL-UYesMyR83I8H5vmn-54" value="钉&lt;br&gt;钉" style="text;html=1;align=center;verticalAlign=middle;resizable=0;points=[];autosize=1;strokeColor=none;fillColor=none;" vertex="1" parent="1">
          <mxGeometry x="280" y="70" width="40" height="40" as="geometry" />
        </mxCell>
        <mxCell id="TdL-UYesMyR83I8H5vmn-62" value="" style="edgeStyle=orthogonalEdgeStyle;rounded=0;orthogonalLoop=1;jettySize=auto;html=1;fillColor=#f8cecc;strokeColor=#b85450;" edge="1" parent="1" source="TdL-UYesMyR83I8H5vmn-55" target="TdL-UYesMyR83I8H5vmn-56">
          <mxGeometry relative="1" as="geometry" />
        </mxCell>
        <mxCell id="TdL-UYesMyR83I8H5vmn-79" style="edgeStyle=orthogonalEdgeStyle;rounded=0;orthogonalLoop=1;jettySize=auto;html=1;entryX=0.513;entryY=0.614;entryDx=0;entryDy=0;entryPerimeter=0;" edge="1" parent="1" source="TdL-UYesMyR83I8H5vmn-55" target="TdL-UYesMyR83I8H5vmn-73">
          <mxGeometry relative="1" as="geometry" />
        </mxCell>
        <mxCell id="TdL-UYesMyR83I8H5vmn-55" value="JavaScript" style="rounded=1;whiteSpace=wrap;html=1;fillColor=#dae8fc;strokeColor=#6c8ebf;" vertex="1" parent="1">
          <mxGeometry x="200" y="190" width="120" height="60" as="geometry" />
        </mxCell>
        <mxCell id="TdL-UYesMyR83I8H5vmn-56" value="自动流转框架" style="rounded=1;whiteSpace=wrap;html=1;fillColor=#f8cecc;strokeColor=#b85450;" vertex="1" parent="1">
          <mxGeometry x="384" y="205" width="60" height="30" as="geometry" />
        </mxCell>
        <mxCell id="TdL-UYesMyR83I8H5vmn-61" value="业&lt;br&gt;务&lt;br&gt;流&lt;br&gt;程&lt;br&gt;管&lt;br&gt;理" style="text;html=1;align=center;verticalAlign=middle;resizable=0;points=[];autosize=1;strokeColor=none;fillColor=none;" vertex="1" parent="1">
          <mxGeometry x="450" y="175" width="40" height="100" as="geometry" />
        </mxCell>
        <mxCell id="TdL-UYesMyR83I8H5vmn-63" value="" style="edgeStyle=orthogonalEdgeStyle;rounded=0;orthogonalLoop=1;jettySize=auto;html=1;fillColor=#dae8fc;strokeColor=#6c8ebf;exitX=0.75;exitY=0;exitDx=0;exitDy=0;" edge="1" parent="1" source="TdL-UYesMyR83I8H5vmn-55">
          <mxGeometry relative="1" as="geometry">
            <mxPoint x="290" y="180" as="sourcePoint" />
            <mxPoint x="290" y="120" as="targetPoint" />
          </mxGeometry>
        </mxCell>
        <mxCell id="TdL-UYesMyR83I8H5vmn-71" value="" style="edgeStyle=orthogonalEdgeStyle;rounded=0;orthogonalLoop=1;jettySize=auto;html=1;" edge="1" parent="1" source="TdL-UYesMyR83I8H5vmn-64">
          <mxGeometry relative="1" as="geometry">
            <mxPoint x="258" y="310" as="targetPoint" />
            <Array as="points">
              <mxPoint x="258" y="320" />
              <mxPoint x="258" y="320" />
            </Array>
          </mxGeometry>
        </mxCell>
        <mxCell id="TdL-UYesMyR83I8H5vmn-64" value="" style="shape=cylinder3;whiteSpace=wrap;html=1;boundedLbl=1;backgroundOutline=1;size=15;" vertex="1" parent="1">
          <mxGeometry x="228" y="350" width="60" height="50" as="geometry" />
        </mxCell>
        <mxCell id="TdL-UYesMyR83I8H5vmn-72" value="" style="edgeStyle=orthogonalEdgeStyle;rounded=0;orthogonalLoop=1;jettySize=auto;html=1;" edge="1" parent="1" source="TdL-UYesMyR83I8H5vmn-65">
          <mxGeometry relative="1" as="geometry">
            <mxPoint x="338" y="310" as="targetPoint" />
          </mxGeometry>
        </mxCell>
        <mxCell id="TdL-UYesMyR83I8H5vmn-65" value="" style="shape=cylinder3;whiteSpace=wrap;html=1;boundedLbl=1;backgroundOutline=1;size=15;" vertex="1" parent="1">
          <mxGeometry x="308" y="350" width="60" height="50" as="geometry" />
        </mxCell>
        <mxCell id="TdL-UYesMyR83I8H5vmn-67" value="" style="shape=curlyBracket;whiteSpace=wrap;html=1;rounded=1;" vertex="1" parent="1">
          <mxGeometry x="118" y="350" width="20" height="50" as="geometry" />
        </mxCell>
        <mxCell id="TdL-UYesMyR83I8H5vmn-68" value="" style="shape=curlyBracket;whiteSpace=wrap;html=1;rounded=1;flipH=1;" vertex="1" parent="1">
          <mxGeometry x="382" y="350" width="20" height="50" as="geometry" />
        </mxCell>
        <mxCell id="TdL-UYesMyR83I8H5vmn-69" value="分布式框架数据仓库" style="text;html=1;align=center;verticalAlign=middle;resizable=0;points=[];autosize=1;strokeColor=#6c8ebf;fillColor=#dae8fc;" vertex="1" parent="1">
          <mxGeometry x="195" y="400" width="130" height="30" as="geometry" />
        </mxCell>
        <mxCell id="TdL-UYesMyR83I8H5vmn-73" value="" style="line;strokeWidth=2;html=1;" vertex="1" parent="1">
          <mxGeometry x="178" y="300" width="160" height="10" as="geometry" />
        </mxCell>
        <mxCell id="TdL-UYesMyR83I8H5vmn-80" value="" style="shape=flexArrow;endArrow=classic;html=1;rounded=0;fontFamily=Verdana;fontSize=12;endWidth=10.285714285714286;endSize=4.525714285714286;fillColor=#e3c800;strokeColor=#B09500;" edge="1" parent="1">
          <mxGeometry width="50" height="50" relative="1" as="geometry">
            <mxPoint x="540" y="300" as="sourcePoint" />
            <mxPoint x="415" y="370" as="targetPoint" />
            <Array as="points">
              <mxPoint x="480" y="330" />
              <mxPoint x="515" y="340" />
              <mxPoint x="479" y="350" />
            </Array>
          </mxGeometry>
        </mxCell>
      </root>
    </mxGraphModel>
  </diagram>
</mxfile>
